 <svg  version="1.0" xmlns="http://www.w3.org/2000/svg"  width="103.000000pt" height="103.000000pt" viewBox="0 0 103.000000 103.000000"  preserveAspectRatio="xMidYMid meet">  <g transform="translate(0.000000,103.000000) scale(0.100000,-0.100000)" fill="#4826a6" stroke="none"> <path d="M368 991 c-214 -69 -348 -254 -348 -481 0 -287 213 -500 500 -500 287 0 500 213 500 500 0 227 -136 415 -349 480 -83 26 -223 26 -303 1z m261 -26 c87 -21 155 -59 222 -126 182 -181 182 -476 -1 -659 -270 -270 -727 -121 -792 258 -39 231 113 464 342 524 81 21 147 22 229 3z"/> <path d="M385 919 c-138 -48 -228 -138 -275 -278 -36 -107 -44 -101 140 -101 l160 0 0 110 c0 61 -2 110 -5 110 -2 0 -20 -8 -40 -17 -33 -16 -35 -19 -35 -69 l0 -52 -75 -4 c-41 -2 -75 -2 -75 0 0 1 11 24 24 50 46 90 148 170 239 187 l37 7 0 -161 0 -161 40 0 40 0 0 161 0 161 37 -7 c91 -17 193 -97 239 -187 l24 -48 -75 0 -75 0 0 53 c0 51 -1 54 -35 70 -20 9 -38 17 -40 17 -3 0 -5 -49 -5 -110 l0 -110 160 0 c154 0 160 1 160 20 0 38 -41 143 -77 197 -100 151 -313 222 -488 162z m178 -16 c3 -5 -8 -24 -24 -43 -18 -21 -29 -28 -29 -19 0 9 -9 24 -20 34 -11 10 -17 22 -14 26 6 11 81 12 87 2z m-396 -280 c-4 -3 0 -15 10 -25 18 -20 18 -20 -15 -23 -31 -3 -41 24 -17 41 20 15 33 19 22 7z m537 -46 c-21 -12 -49 15 -40 39 6 15 9 15 32 -6 22 -21 23 -25 8 -33z m201 32 c9 -28 -8 -43 -40 -35 l-26 7 23 24 c28 30 35 31 43 4z m-528 -6 c5 -14 -34 -36 -48 -27 -7 4 -4 13 7 25 18 20 35 21 41 2z"/> <path d="M90 462 c0 -31 31 -125 53 -162 56 -94 136 -163 227 -195 l40 -14 0 112 0 112 -40 0 -40 0 0 -53 c0 -39 4 -53 12 -50 7 3 14 19 16 36 6 60 22 32 22 -38 0 -48 -4 -70 -12 -70 -16 0 -118 62 -118 72 0 14 27 9 40 -7 13 -16 40 -21 40 -7 0 4 -23 29 -50 56 -28 26 -62 70 -76 97 l-24 49 150 0 150 0 0 -160 0 -160 40 0 40 0 0 160 0 160 150 0 150 0 -24 -49 c-14 -27 -48 -71 -76 -97 -27 -27 -50 -52 -50 -56 0 -36 117 68 150 132 25 48 25 62 2 83 -15 14 -42 17 -160 17 -180 0 -172 8 -172 -182 0 -85 -4 -138 -10 -138 -6 0 -10 53 -10 138 0 190 8 182 -174 182 -126 0 -145 -2 -159 -18 -10 -10 -17 -25 -17 -34 0 -22 77 -138 92 -138 9 0 9 -3 0 -12 -14 -14 -21 -6 -78 85 -20 32 -38 76 -41 98 l-6 39 392 0 391 0 0 -26 c0 -42 -59 -151 -107 -199 -47 -46 -127 -94 -139 -82 -8 8 -8 126 0 134 9 9 14 1 19 -32 7 -53 27 -41 27 17 l0 53 -40 0 -40 0 0 -112 0 -113 50 19 c115 44 213 150 250 269 35 114 82 102 -410 102 -409 0 -430 -1 -430 -18z"/> </g> </svg> 